<svg width="172" height="41" viewBox="0 0 172 41" fill="none" xmlns="http://www.w3.org/2000/svg">
<path d="M2.7224 32V10.5488H6.5272V19.1752H15.2192V10.5488H19.024V32H15.2192V22.488H6.5272V32H2.7224ZM31.0316 32.3936C29.5447 32.3936 28.1999 32.0656 26.9972 31.4096C25.7946 30.7317 24.8434 29.7696 24.1436 28.5232C23.4439 27.2549 23.094 25.7352 23.094 23.964C23.094 22.2147 23.4439 20.7059 24.1436 19.4376C24.8652 18.1693 25.7946 17.1963 26.9316 16.5184C28.0687 15.8405 29.2604 15.5016 30.5068 15.5016C31.9719 15.5016 33.1964 15.8296 34.1804 16.4856C35.1644 17.1197 35.9079 18.0163 36.4108 19.1752C36.9138 20.3123 37.1652 21.6352 37.1652 23.144C37.1652 23.9312 37.1106 24.5435 37.0012 24.9808H26.7676C26.9426 26.4021 27.4564 27.5064 28.3092 28.2936C29.162 29.0808 30.2335 29.4744 31.5236 29.4744C32.2234 29.4744 32.8684 29.376 33.4588 29.1792C34.0711 28.9605 34.6724 28.6653 35.2628 28.2936L36.542 30.6552C35.7767 31.1581 34.9239 31.5736 33.9836 31.9016C33.0434 32.2296 32.0594 32.3936 31.0316 32.3936ZM26.7348 22.4224H33.8852C33.8852 21.176 33.6119 20.2029 33.0652 19.5032C32.5186 18.7816 31.6986 18.4208 30.6052 18.4208C29.665 18.4208 28.8231 18.7707 28.0796 19.4704C27.358 20.1483 26.9098 21.1323 26.7348 22.4224ZM44.4414 32.3936C43.1076 32.3936 42.1564 31.9891 41.5878 31.18C41.0412 30.3709 40.7678 29.2667 40.7678 27.8672V8.8432H44.5398V28.064C44.5398 28.5232 44.6273 28.8512 44.8022 29.048C44.9772 29.2229 45.163 29.3104 45.3598 29.3104C45.4473 29.3104 45.5238 29.3104 45.5894 29.3104C45.6769 29.2885 45.7972 29.2667 45.9502 29.2448L46.4422 32.0656C46.2236 32.1531 45.9393 32.2296 45.5894 32.2952C45.2614 32.3608 44.8788 32.3936 44.4414 32.3936ZM49.6725 38.3632V15.8952H52.7885L53.0509 17.6008H53.1821C53.86 17.0323 54.6144 16.5403 55.4453 16.1248C56.2981 15.7093 57.1619 15.5016 58.0365 15.5016C60.0483 15.5016 61.6008 16.2451 62.6941 17.732C63.8093 19.2189 64.3669 21.2088 64.3669 23.7016C64.3669 25.5384 64.0389 27.1128 63.3829 28.4248C62.7269 29.7149 61.8741 30.6989 60.8245 31.3768C59.7968 32.0547 58.6816 32.3936 57.4789 32.3936C56.7792 32.3936 56.0795 32.2405 55.3797 31.9344C54.68 31.6064 54.0021 31.1691 53.3461 30.6224L53.4445 33.312V38.3632H49.6725ZM56.6917 29.2776C57.7632 29.2776 58.6597 28.8075 59.3813 27.8672C60.1029 26.9269 60.4637 25.5493 60.4637 23.7344C60.4637 22.1163 60.1904 20.8589 59.6437 19.9624C59.0971 19.0659 58.2115 18.6176 56.9869 18.6176C55.8499 18.6176 54.6691 19.2189 53.4445 20.4216V27.9328C54.0349 28.4139 54.6035 28.7637 55.1501 28.9824C55.6968 29.1792 56.2107 29.2776 56.6917 29.2776ZM75.0746 32.3936C73.5876 32.3936 72.2428 32.0656 71.0402 31.4096C69.8375 30.7317 68.8863 29.7696 68.1866 28.5232C67.4868 27.2549 67.137 25.7352 67.137 23.964C67.137 22.2147 67.4868 20.7059 68.1866 19.4376C68.9082 18.1693 69.8375 17.1963 70.9746 16.5184C72.1116 15.8405 73.3034 15.5016 74.5498 15.5016C76.0149 15.5016 77.2394 15.8296 78.2234 16.4856C79.2074 17.1197 79.9509 18.0163 80.4538 19.1752C80.9567 20.3123 81.2082 21.6352 81.2082 23.144C81.2082 23.9312 81.1535 24.5435 81.0442 24.9808H70.8106C70.9855 26.4021 71.4994 27.5064 72.3522 28.2936C73.205 29.0808 74.2764 29.4744 75.5666 29.4744C76.2663 29.4744 76.9114 29.376 77.5018 29.1792C78.114 28.9605 78.7154 28.6653 79.3058 28.2936L80.585 30.6552C79.8196 31.1581 78.9668 31.5736 78.0266 31.9016C77.0863 32.2296 76.1023 32.3936 75.0746 32.3936ZM70.7778 22.4224H77.9282C77.9282 21.176 77.6548 20.2029 77.1082 19.5032C76.5615 18.7816 75.7415 18.4208 74.6482 18.4208C73.7079 18.4208 72.866 18.7707 72.1226 19.4704C71.401 20.1483 70.9527 21.1323 70.7778 22.4224ZM84.8108 32V15.8952H87.9268L88.1892 18.0928H88.3204C88.9983 17.3712 89.7308 16.7589 90.518 16.256C91.3271 15.7531 92.2345 15.5016 93.2404 15.5016C94.4212 15.5016 95.3615 15.764 96.0612 16.2888C96.7828 16.7917 97.3295 17.4915 97.7012 18.388C98.4665 17.5571 99.2647 16.8683 100.096 16.3216C100.948 15.7749 101.878 15.5016 102.884 15.5016C104.589 15.5016 105.847 16.0592 106.656 17.1744C107.465 18.2896 107.869 19.864 107.869 21.8976V32H104.064V22.3896C104.064 21.0557 103.857 20.1155 103.441 19.5688C103.048 19.0221 102.435 18.7488 101.604 18.7488C100.599 18.7488 99.4724 19.4157 98.226 20.7496V32H94.454V22.3896C94.454 21.0557 94.2463 20.1155 93.8308 19.5688C93.4372 19.0221 92.814 18.7488 91.9612 18.7488C90.9553 18.7488 89.8292 19.4157 88.5828 20.7496V32H84.8108ZM121.113 32.3936C119.254 32.3936 117.614 31.9453 116.193 31.0488C114.772 30.1304 113.656 28.8403 112.847 27.1784C112.06 25.4947 111.667 23.4939 111.667 21.176C111.667 18.8581 112.06 16.8792 112.847 15.2392C113.656 13.5992 114.772 12.3419 116.193 11.4672C117.614 10.5925 119.254 10.1552 121.113 10.1552C122.994 10.1552 124.644 10.5925 126.066 11.4672C127.487 12.3419 128.591 13.5992 129.379 15.2392C130.188 16.8792 130.592 18.8581 130.592 21.176C130.592 23.4939 130.188 25.4947 129.379 27.1784C128.591 28.8403 127.487 30.1304 126.066 31.0488C124.644 31.9453 122.994 32.3936 121.113 32.3936ZM121.113 29.0808C122.797 29.0808 124.142 28.3701 125.147 26.9488C126.153 25.5056 126.656 23.5813 126.656 21.176C126.656 18.7707 126.153 16.8901 125.147 15.5344C124.142 14.1568 122.797 13.468 121.113 13.468C119.429 13.468 118.084 14.1568 117.079 15.5344C116.073 16.8901 115.57 18.7707 115.57 21.176C115.57 23.5813 116.073 25.5056 117.079 26.9488C118.084 28.3701 119.429 29.0808 121.113 29.0808ZM142.919 32.3936C141.279 32.3936 139.847 32.0656 138.623 31.4096C137.398 30.7536 136.447 29.704 135.769 28.2608C135.113 26.8176 134.785 24.9261 134.785 22.5864V10.5488H138.59V22.8816C138.59 24.4341 138.765 25.6696 139.115 26.588C139.486 27.4845 140 28.1296 140.656 28.5232C141.312 28.8949 142.067 29.0808 142.919 29.0808C143.794 29.0808 144.559 28.8949 145.215 28.5232C145.893 28.1296 146.418 27.4845 146.79 26.588C147.183 25.6696 147.38 24.4341 147.38 22.8816V10.5488H151.021V22.5864C151.021 24.9261 150.693 26.8176 150.037 28.2608C149.381 29.704 148.441 30.7536 147.216 31.4096C146.013 32.0656 144.581 32.3936 142.919 32.3936ZM160.706 32V13.7632H154.507V10.5488H170.71V13.7632H164.511V32H160.706Z" fill="#952A2A"/>
<circle cx="137" cy="6" r="3" fill="#800000"/>
<circle cx="148" cy="6" r="3" fill="#800000"/>
</svg>
